[2026-03-14 18:56:49] [INFO] Jarvis Desktop launcher started.
[2026-03-14 18:56:49] [INFO] Runtime log path: C:\Jarvis\logs\runtime_2026-03-14_18-56-49.txt
[2026-03-14 18:56:49] [INFO] Launcher executable: C:\Users\anden\AppData\Local\Python\pythoncore-3.14-64\pythonw.exe
[2026-03-14 18:56:49] [INFO] Root directory: C:\Jarvis
[2026-03-14 18:56:49] [INFO] Target script: C:\Jarvis\jarvis_desktop_test.py
[2026-03-14 18:56:49] [INFO] Diagnostics script: C:\Jarvis\desktop\jarvis_diagnostics.pyw
[2026-03-14 18:56:49] [INFO] Recovery attempts allowed: 3
[2026-03-14 18:56:49] [INFO] Voice hook ready: C:\Jarvis\jarvis_voice.py
[2026-03-14 18:56:49] [INFO] Starting desktop renderer process. attempt=1
[2026-03-14 18:56:49] [INFO] Child executable: C:\Users\anden\AppData\Local\Python\pythoncore-3.14-64\pythonw.exe
[2026-03-14 18:56:50] [STDOUT] Jarvis Desktop Concept 1 - Version 1.02
[2026-03-14 18:56:50] [STDOUT] Hotkey: Ctrl + Alt + End
[2026-03-14 18:56:50] [STDERR] Traceback (most recent call last):
[2026-03-14 18:56:50] [STDERR]   File "C:\Jarvis\jarvis_desktop_test.py", line 44, in <module>
[2026-03-14 18:56:50] [STDERR]     raise SystemExit(main())
[2026-03-14 18:56:50] [STDERR]                      ~~~~^^
[2026-03-14 18:56:50] [STDERR]   File "C:\Jarvis\jarvis_desktop_test.py", line 36, in main
[2026-03-14 18:56:50] [STDERR]     raise RuntimeError("Jarvis test crash triggered intentionally")
[2026-03-14 18:56:50] [STDERR] RuntimeError: Jarvis test crash triggered intentionally
[2026-03-14 18:56:50] [INFO] Desktop renderer exited. exit_code=1
[2026-03-14 18:56:50] [WARN] Recovery attempt 1/3
[2026-03-14 18:56:51] [INFO] Starting desktop renderer process. attempt=2
[2026-03-14 18:56:51] [INFO] Child executable: C:\Users\anden\AppData\Local\Python\pythoncore-3.14-64\pythonw.exe
[2026-03-14 18:56:51] [STDOUT] Jarvis Desktop Concept 1 - Version 1.02
[2026-03-14 18:56:51] [STDOUT] Hotkey: Ctrl + Alt + End
[2026-03-14 18:56:51] [STDERR] Traceback (most recent call last):
[2026-03-14 18:56:51] [STDERR]   File "C:\Jarvis\jarvis_desktop_test.py", line 44, in <module>
[2026-03-14 18:56:51] [STDERR]     raise SystemExit(main())
[2026-03-14 18:56:51] [STDERR]                      ~~~~^^
[2026-03-14 18:56:51] [STDERR]   File "C:\Jarvis\jarvis_desktop_test.py", line 36, in main
[2026-03-14 18:56:51] [STDERR]     raise RuntimeError("Jarvis test crash triggered intentionally")
[2026-03-14 18:56:51] [STDERR] RuntimeError: Jarvis test crash triggered intentionally
[2026-03-14 18:56:51] [INFO] Desktop renderer exited. exit_code=1
[2026-03-14 18:56:51] [WARN] Recovery attempt 2/3
[2026-03-14 18:56:52] [INFO] Starting desktop renderer process. attempt=3
[2026-03-14 18:56:52] [INFO] Child executable: C:\Users\anden\AppData\Local\Python\pythoncore-3.14-64\pythonw.exe
[2026-03-14 18:56:53] [STDOUT] Jarvis Desktop Concept 1 - Version 1.02
[2026-03-14 18:56:53] [STDOUT] Hotkey: Ctrl + Alt + End
[2026-03-14 18:56:53] [STDERR] Traceback (most recent call last):
[2026-03-14 18:56:53] [STDERR]   File "C:\Jarvis\jarvis_desktop_test.py", line 44, in <module>
[2026-03-14 18:56:53] [STDERR]     raise SystemExit(main())
[2026-03-14 18:56:53] [STDERR]                      ~~~~^^
[2026-03-14 18:56:53] [STDERR]   File "C:\Jarvis\jarvis_desktop_test.py", line 36, in main
[2026-03-14 18:56:53] [STDERR]     raise RuntimeError("Jarvis test crash triggered intentionally")
[2026-03-14 18:56:53] [STDERR] RuntimeError: Jarvis test crash triggered intentionally
[2026-03-14 18:56:53] [INFO] Desktop renderer exited. exit_code=1
[2026-03-14 18:56:53] [ERROR] Crash log written: C:\Jarvis\logs\crash\crash_2026-03-14_18-56-53.txt
[2026-03-14 18:56:53] [INFO] Trying voice line 'Um..... Sir, I seem to be malfunctioning.' using voice --text --mode
[2026-03-14 18:56:58] [VOICE_STDERR] [mp3 @ 0000014E8DCF7E80] Estimating duration from bitrate, this may be inaccurate
[2026-03-14 18:56:58] [VOICE_STDERR] Input #0, mp3, from 'C:/Users/anden/AppData/Local/Temp/tmp4ltoc0rq.mp3':
[2026-03-14 18:56:58] [VOICE_STDERR]   Duration: 00:00:03.86, start: 0.000000, bitrate: 48 kb/s
[2026-03-14 18:56:58] [VOICE_STDERR]   Stream #0:0: Audio: mp3 (mp3float), 24000 Hz, mono, fltp, 48 kb/s
[2026-03-14 18:56:58] [INFO] Voice line completed: Um..... Sir, I seem to be malfunctioning.
[2026-03-14 18:56:58] [INFO] Failure voice step 1/3 success=True line=Um..... Sir, I seem to be malfunctioning.
[2026-03-14 18:56:59] [INFO] Trying voice line 'Attempting restart.' using voice --text --mode
[2026-03-14 18:57:04] [VOICE_STDERR] [mp3 @ 0000025D825EC900] Estimating duration from bitrate, this may be inaccurate
[2026-03-14 18:57:04] [VOICE_STDERR] Input #0, mp3, from 'C:/Users/anden/AppData/Local/Temp/tmpf1p1el_f.mp3':
[2026-03-14 18:57:04] [VOICE_STDERR]   Duration: 00:00:03.86, start: 0.000000, bitrate: 48 kb/s
[2026-03-14 18:57:04] [VOICE_STDERR]   Stream #0:0: Audio: mp3 (mp3float), 24000 Hz, mono, fltp, 48 kb/s
[2026-03-14 18:57:04] [INFO] Voice line completed: Attempting restart.
[2026-03-14 18:57:04] [INFO] Failure voice step 2/3 success=True line=Attempting restart.
[2026-03-14 18:57:05] [INFO] Trying voice line 'Restart failed.' using voice --text --mode
[2026-03-14 18:57:09] [VOICE_STDERR] [mp3 @ 000001E830077C00] Estimating duration from bitrate, this may be inaccurate
[2026-03-14 18:57:09] [VOICE_STDERR] Input #0, mp3, from 'C:/Users/anden/AppData/Local/Temp/tmpll9x7tei.mp3':
[2026-03-14 18:57:09] [VOICE_STDERR]   Duration: 00:00:03.86, start: 0.000000, bitrate: 48 kb/s
[2026-03-14 18:57:09] [VOICE_STDERR]   Stream #0:0: Audio: mp3 (mp3float), 24000 Hz, mono, fltp, 48 kb/s
[2026-03-14 18:57:09] [INFO] Voice line completed: Restart failed.
[2026-03-14 18:57:09] [INFO] Failure voice step 3/3 success=True line=Restart failed.
[2026-03-14 18:57:10] [INFO] Diagnostics process launched.
